<svg xmlns="http://www.w3.org/2000/svg" width="63.969" height="64.88" viewBox="0 0 63.969 64.88"><g transform="translate(-151 -28.043)"><rect width="63.695" height="62.774" transform="translate(151 29)" fill="rgba(54,54,54,0)"/><path d="M3.156.031A3.017,3.017,0,0,1,6.142,3.016l.565,77.062A2.912,2.912,0,0,1,3.764,83.02,3.017,3.017,0,0,1,.779,80.034L.214,2.973A2.912,2.912,0,0,1,3.156.031Z" transform="translate(151.523 34.37) rotate(-45)" fill="#f5f5f5"/><path d="M2.957-.029A2.912,2.912,0,0,1,5.9,2.913L5.335,79.975a3.017,3.017,0,0,1-2.986,2.986A2.912,2.912,0,0,1-.593,80.018L-.029,2.957A3.017,3.017,0,0,1,2.957-.029Z" transform="translate(210.585 28.483) rotate(45)" fill="#f5f5f5"/></g></svg>