<svg xmlns="http://www.w3.org/2000/svg" xmlns:xlink="http://www.w3.org/1999/xlink" width="170" height="170" viewBox="0 0 170 170"><defs><filter id="a" x="47.269" y="46.494" width="112.511" height="89.605" filterUnits="userSpaceOnUse"><feOffset dx="3" dy="-1" input="SourceAlpha"/><feGaussianBlur stdDeviation="3" result="b"/><feFlood flood-opacity="0.161"/><feComposite operator="in" in2="b"/><feComposite in="SourceGraphic"/></filter><filter id="c" x="35.414" y="28.229" width="109.79" height="111.026" filterUnits="userSpaceOnUse"><feOffset dx="2" dy="1" input="SourceAlpha"/><feGaussianBlur stdDeviation="3" result="d"/><feFlood flood-opacity="0.161"/><feComposite operator="in" in2="d"/><feComposite in="SourceGraphic"/></filter><filter id="e" x="28.822" y="19.435" width="93.083" height="120.323" filterUnits="userSpaceOnUse"><feOffset dx="1" dy="2" input="SourceAlpha"/><feGaussianBlur stdDeviation="3" result="f"/><feFlood flood-opacity="0.161"/><feComposite operator="in" in2="f"/><feComposite in="SourceGraphic"/></filter><filter id="g" x="26.16" y="23.451" width="58.311" height="115.723" filterUnits="userSpaceOnUse"><feOffset dy="3" input="SourceAlpha"/><feGaussianBlur stdDeviation="3" result="h"/><feFlood flood-opacity="0.161"/><feComposite operator="in" in2="h"/><feComposite in="SourceGraphic"/></filter><filter id="i" x="52.517" y="105.335" width="24.039" height="24.039" filterUnits="userSpaceOnUse"><feOffset input="SourceAlpha"/><feGaussianBlur stdDeviation="2.5" result="j"/><feFlood flood-opacity="0.231"/><feComposite operator="in" in2="j"/><feComposite in="SourceGraphic"/></filter></defs><g transform="translate(35.682 4.895)"><circle cx="85" cy="85" r="85" transform="translate(-35.682 -4.895)" fill="#fff"/><g transform="translate(-0.521 21.54)"><rect width="40.311" height="101.388" rx="4" transform="translate(113.603 60.428) rotate(90)" fill="#ffc107"/><g transform="matrix(1, 0, 0, 1, -35.16, -26.44)" filter="url(#a)"><rect width="40.311" height="85.508" rx="4" transform="translate(131.38 56.49) rotate(66)" fill="#4caf50"/></g><g transform="matrix(1, 0, 0, 1, -35.16, -26.44)" filter="url(#c)"><rect width="40.311" height="90.394" rx="4" transform="matrix(0.72, 0.69, -0.69, 0.72, 105.21, 36.23)" fill="#009688"/></g><g transform="matrix(1, 0, 0, 1, -35.16, -26.44)" filter="url(#e)"><rect width="40.311" height="94.059" rx="4" transform="matrix(0.91, 0.41, -0.41, 0.91, 75.08, 26.44)" fill="#ab47bc"/></g><g transform="matrix(1, 0, 0, 1, -35.16, -26.44)" filter="url(#g)"><rect width="40.311" height="97.723" rx="4" transform="translate(35.16 29.45)" fill="#f44336"/></g></g><g transform="matrix(1, 0, 0, 1, -35.68, -4.9)" filter="url(#i)"><ellipse cx="4.519" cy="4.519" rx="4.519" ry="4.519" transform="translate(60.02 112.84)" fill="#fff"/></g></g></svg>